<?xml version="1.0" encoding="utf-8"?>
<!-- Generator: Adobe Illustrator 21.0.0, SVG Export Plug-In . SVG Version: 6.00 Build 0)  -->
<svg version="1.1" id="Layer_1" xmlns="http://www.w3.org/2000/svg" xmlns:xlink="http://www.w3.org/1999/xlink" x="0px" y="0px"
	 viewBox="0 0 512 512" style="enable-background:new 0 0 512 512;" xml:space="preserve">
<g>
	<path d="M20.7,49.1C9.3,49.1,0,58.4,0,69.8s9.3,20.7,20.7,20.7h45.9l54.3,217.2c4.6,18.4,21.1,31,40.1,31h257.9
		c18.7,0,34.5-12.4,39.4-30.4L512,111.2h-43.3l-49.8,186.2H161L106.7,80.2c-4.6-18.4-21.1-31-40.1-31H20.7z M393.1,338.7
		c-34,0-62.1,28-62.1,62.1s28,62.1,62.1,62.1s62.1-28,62.1-62.1S427.1,338.7,393.1,338.7z M206.9,338.7c-34,0-62.1,28-62.1,62.1
		s28,62.1,62.1,62.1s62.1-28,62.1-62.1S240.9,338.7,206.9,338.7z M268.9,49.1v103.4h-62.1l82.7,82.7l82.7-82.7h-62.1V49.1H268.9z
		 M206.9,380.1c11.6,0,20.7,9.1,20.7,20.7c0,11.6-9.1,20.7-20.7,20.7c-11.6,0-20.7-9.1-20.7-20.7
		C186.2,389.2,195.2,380.1,206.9,380.1z M393.1,380.1c11.6,0,20.7,9.1,20.7,20.7c0,11.6-9.1,20.7-20.7,20.7s-20.7-9.1-20.7-20.7
		C372.4,389.2,381.4,380.1,393.1,380.1z"/>
</g>
</svg>
