<?xml version="1.0" encoding="utf-8"?>
<!-- Generator: Adobe Illustrator 24.1.1, SVG Export Plug-In . SVG Version: 6.00 Build 0)  -->
<svg version="1.1" id="Layer_1" xmlns="http://www.w3.org/2000/svg" xmlns:xlink="http://www.w3.org/1999/xlink" x="0px" y="0px"
	 viewBox="0 0 512 512" style="enable-background:new 0 0 512 512;" xml:space="preserve">
<style type="text/css">
	.st0{fill:#FABC3D;}
	.st1{fill:#E2E4E5;}
	.st2{fill:#F8E1C2;}
	.st3{fill:#FCF1E2;}
	.st4{fill:#F79392;}
	.st5{fill:#3E3E3F;}
	.st6{fill:#F4D0A1;}
	.st7{fill:#FA5655;}
	.st8{fill:#FFFFFF;}
	.st9{fill:#DF2C2C;}
	.st10{fill:#9E9FA0;}
</style>
<g id="XMLID_1_">
	<circle id="XMLID_3_" class="st0" cx="256" cy="256" r="256"/>
	<polygon id="XMLID_4_" class="st1" points="311.9,316.7 302.5,311.9 209.5,311.9 200.1,316.7 256,404.9 	"/>
	<path id="XMLID_5_" class="st2" d="M326.1,209.5c-4.7,0-4.7,5.5-4.7,5.5v-5.5c0-4.7,0-9.5,0-14.2c-19.7-18.1-65.4-18.1-65.4-18.1
		s-45.7,0-64.6,18.1c0,4.7,0,9.5,0,14.2v37l18.9,46.5l23.6,18.9c2.4,3.2,6.3,4.7,10.2,4.7H256h12.6c3.9,0,7.9-1.6,10.2-4.7
		l23.6-18.9l15-37c13.4-0.8,17.3-21.3,17.3-36.2C334.8,214.3,330.8,209.5,326.1,209.5z"/>
	<path id="XMLID_6_" class="st3" d="M190.6,209.5v5.5c0,0,0-5.5-4.7-5.5c-4.7,0-8.7,4.7-8.7,10.2c0,15,4.7,35.4,17.3,36.2l15,37
		l23.6,18.9c2.4,3.2,6.3,4.7,10.2,4.7H256V177.2c0,0-45.7,0-64.6,18.1C190.6,200.1,190.6,204.8,190.6,209.5z"/>
	<path id="XMLID_7_" class="st4" d="M232.4,265.5h47.3c0,0,0,14.2-23.6,14.2S232.4,265.5,232.4,265.5z"/>
	<path id="XMLID_8_" class="st5" d="M283.6,220.6c5.5,0,10.2,1.6,14.2,3.2c0-2.4-0.8-5.5-3.2-7.1c-4.7-3.9-12.6-3.9-17.3,0
		c-2.4,1.6-3.2,3.9-3.2,5.5C276.5,220.6,280.4,220.6,283.6,220.6z"/>
	<path id="XMLID_9_" class="st5" d="M228.4,220.6c-5.5,0-10.2,1.6-14.2,3.2c0-2.4,0.8-5.5,3.2-7.1c4.7-3.9,12.6-3.9,17.3,0
		c2.4,1.6,3.2,3.9,3.2,5.5C235.5,220.6,231.6,220.6,228.4,220.6z"/>
	<path id="XMLID_10_" class="st6" d="M268.6,316.7H256h-12.6c-3.9,0-7.9-1.6-10.2-4.7L209.5,293v21.3c0,0,0,34.7,46.5,34.7
		s46.5-34.7,46.5-34.7V293l-23.6,18.9C276.5,315.1,272.5,316.7,268.6,316.7z"/>
	<path id="XMLID_11_" class="st5" d="M256,177.2c0,0-3.2,0-8.7,0c0,5.5,0,19.7,0,26c17.3,0,27.6-12.6,33.9-24.4
		C267,177.2,256,177.2,256,177.2z"/>
	<path id="XMLID_12_" class="st5" d="M213.5,182.7c-8.7,2.4-17.3,7.1-22.8,12.6c0,16.5,11,24.4,11,24.4
		C200.1,206.4,200.1,196.9,213.5,182.7z"/>
	<path id="XMLID_13_" class="st5" d="M218.2,182c0,4.7,0,13.4,0,21.3c13.4,0,23.6-18.9,27.6-26C238.7,178,228.4,178.8,218.2,182z"/>
	<path id="XMLID_14_" class="st5" d="M308.8,187.5c0,1.6,0,21.3,0,33.1c11.8,0,12.6-22.1,12.6-24.4
		C317.4,192.2,313.5,189,308.8,187.5z"/>
	<path id="XMLID_15_" class="st5" d="M288.3,180.4c0,7.9,0,16.5,0,22.8c15.8,0,20.5-15,20.5-16.5C302.5,184.3,295.4,182,288.3,180.4
		z"/>
	<path id="XMLID_16_" class="st2" d="M233.2,311.9L209.5,293v21.3c0,0,0,34.7,46.5,34.7v-32.3h-12.6
		C239.5,316.7,235.5,315.1,233.2,311.9z"/>
	<path id="XMLID_17_" class="st7" d="M160.7,248.9v-91.4c-3.2-0.8-6.3-2.4-9.5-3.2v94.5c-11.8,7.9-4.7,31.5-4.7,44.1
		c4.7,0,7.1,0,8.7,0h0.8c0.8,0,0.8,0,0.8,0c1.6,0,3.9,0,8.7,0C165.4,280.4,172.5,256.8,160.7,248.9z"/>
	<path id="XMLID_18_" class="st5" d="M382,144.1c0-4.7-116.6-37-126-37c-9.5,0-126,32.3-126,37c0,3.2,34.7,15,60.7,23.6
		c0,7.9,0,17.3,0,27.6c18.9-18.1,65.4-18.1,65.4-18.1s46.5,0,65.4,18.9c0-10.2,0-19.7,0-27.6C347.4,159.1,382,147.3,382,144.1z"/>
	<polygon id="XMLID_19_" class="st8" points="311.9,316.7 311.9,316.7 302.5,311.9 256,334.8 282.8,362.3 	"/>
	<polygon id="XMLID_20_" class="st9" points="274.9,404.9 261.5,357.6 270.2,348.9 256,334.8 241.8,348.9 250.5,357.6 237.1,404.9 	
		"/>
	<polygon id="XMLID_21_" class="st7" points="256,404.9 256,334.8 256,334.8 241.8,348.9 250.5,357.6 237.1,404.9 	"/>
	<polygon id="XMLID_22_" class="st8" points="200.1,316.7 200.1,316.7 209.5,311.9 256,334.8 229.2,362.3 	"/>
	<path id="XMLID_23_" class="st5" d="M107.1,404.9l18.9-51.2c3.2-6.3,7.9-11,14.2-14.2l60.7-23.6l55.1,89H107.1z"/>
	<path id="XMLID_24_" class="st5" d="M404.9,404.9L386,353.7c-3.2-6.3-7.9-11-14.2-14.2l-60.7-23.6l-55.1,89H404.9z"/>
	<polygon id="XMLID_25_" class="st10" points="256,404.9 200.1,316.7 158.3,330.8 237.1,404.9 	"/>
	<polygon id="XMLID_26_" class="st10" points="256,404.9 311.9,316.7 353.7,330.8 274.9,404.9 	"/>
</g>
</svg>
